<svg xmlns="http://www.w3.org/2000/svg" width="1140" height="400" viewBox="0 0 1140 400"><line x1="20" y1="350" x2="1120" y2="350" stroke="#9a8f7e" stroke-width="2" stroke-dasharray="10 8"/><text x="84" y="340" fill="#7a6f5e" font-size="22" text-anchor="start" font-family="'Source Sans 3',sans-serif">Erde</text><rect x="800" y="40" width="160" height="230" fill="#eef0f3" stroke="#6b7280" stroke-width="3" rx="6"/><text x="880" y="256" fill="#4b5563" font-size="20" text-anchor="middle" font-family="'Source Sans 3',sans-serif">Metallgehäuse</text><text x="880" y="28" fill="#4b5563" font-size="22" text-anchor="middle" font-family="'Source Sans 3',sans-serif">Wasserkocher 2000 W</text><text x="24" y="80" fill="#7a4a1e" font-size="30" text-anchor="start" font-weight="600" font-family="'Source Sans 3',sans-serif">L</text><text x="24" y="160" fill="#1f4e8a" font-size="30" text-anchor="start" font-weight="600" font-family="'Source Sans 3',sans-serif">N</text><text x="14" y="240" fill="#1f6b3a" font-size="30" text-anchor="start" font-weight="600" font-family="'Source Sans 3',sans-serif">PE</text><line x1="60" y1="70" x2="880" y2="70" stroke="#7a4a1e" stroke-width="5"/><line x1="60" y1="150" x2="880" y2="150" stroke="#1f4e8a" stroke-width="5"/><line x1="880" y1="70" x2="880" y2="88" stroke="#7a4a1e" stroke-width="4"/><line x1="880" y1="132" x2="880" y2="150" stroke="#1f4e8a" stroke-width="4"/><line x1="60" y1="150" x2="60" y2="320" stroke="#1f4e8a" stroke-width="4"/><circle cx="60" cy="150" r="6" fill="#1f4e8a"/><circle cx="60" cy="230" r="6" fill="#1f6b3a"/><line x1="43" y1="320" x2="77" y2="320" stroke="#1c1a17" stroke-width="3"/><line x1="49" y1="328" x2="71" y2="328" stroke="#1c1a17" stroke-width="3"/><line x1="55" y1="336" x2="65" y2="336" stroke="#1c1a17" stroke-width="3"/><line x1="60" y1="230" x2="800" y2="230" stroke="#3f8f3a" stroke-width="6"/><line x1="60" y1="230" x2="800" y2="230" stroke="#e8c21a" stroke-width="6" stroke-dasharray="14 14"/><circle cx="800" cy="230" r="7" fill="#1f6b3a"/><rect x="120" y="55" width="70" height="30" fill="#fff" stroke="#1c1a17" stroke-width="3"/><text x="155" y="44" fill="#1c1a17" font-size="22" text-anchor="middle" font-family="'Source Sans 3',sans-serif">LS 16 A</text><rect x="250" y="25" width="150" height="160" fill="none" stroke="#1c1a17" stroke-width="3"/><ellipse cx="325" cy="110" rx="22" ry="62" fill="none" stroke="#7a6f5e" stroke-width="7"/><text x="325" y="18" fill="#1c1a17" font-size="24" text-anchor="middle" font-weight="600" font-family="'Source Sans 3',sans-serif">FI 30 mA</text><line x1="880" y1="70" x2="880" y2="88" stroke="#7a4a1e" stroke-width="4"/><rect x="868" y="88" width="24" height="44" fill="#e8a33c" stroke="#1c1a17" stroke-width="3"/><text x="560" y="56" fill="#7a4a1e" font-size="28" text-anchor="middle" font-weight="600" font-family="'Source Sans 3',sans-serif">hin: 468.7 A</text><text x="560" y="188" fill="#1f4e8a" font-size="28" text-anchor="middle" font-weight="600" font-family="'Source Sans 3',sans-serif">zurück: 468.7 A</text><line x1="760" y1="70" x2="760" y2="150" stroke="#9b1c1c" stroke-width="7"/><text x="730" y="122" fill="#9b1c1c" font-size="36" text-anchor="end" font-family="'Source Sans 3',sans-serif">⚡</text></svg>
